<?xml version="1.0" encoding="utf-8"?>
<!-- Generator: Adobe Illustrator 16.0.1, SVG Export Plug-In . SVG Version: 6.00 Build 0)  -->
<svg version="1.2" baseProfile="tiny" id="Layer_1" xmlns="http://www.w3.org/2000/svg" xmlns:xlink="http://www.w3.org/1999/xlink"
	 x="0px" y="0px" width="500px" height="500px" viewBox="0 0 500 500" xml:space="preserve">
<path d="M162.069,1.15c-2.513,0.078-5.22,1.006-8.29,3.429c-7.521-2.9-14.812-3.908-21.333,1.997
	c-10.069-1.306-13.342,1.389-15.821,4.536c-2.21-0.046-16.541-2.272-23.112,7.53c-16.515-1.954-21.734,9.714-15.82,20.595
	c-3.373,5.221-6.868,10.38,1.02,20.334c-2.791,5.544-1.061,11.558,5.512,18.836c-1.735,7.794,1.675,13.292,7.791,17.578
	c-1.144,10.665,9.78,16.866,13.042,19.076c1.253,6.214,3.863,12.078,16.341,15.321c2.058,9.261,9.557,10.86,16.819,12.804
	c-24.001,13.951-44.584,32.308-44.445,77.347l-3.516,6.271c-27.521,16.736-52.281,70.528-13.562,114.25
	c2.529,13.686,6.771,23.516,10.547,34.396c5.648,43.841,42.513,64.369,52.235,66.797c14.248,10.853,29.422,21.15,49.957,28.364
	c19.357,19.964,40.329,27.573,61.415,27.561c0.31,0,0.624,0.004,0.934,0c21.086,0.014,42.057-7.596,61.415-27.561
	c20.534-7.214,35.709-17.512,49.957-28.364c9.723-2.428,46.587-22.956,52.235-66.797c3.776-10.881,8.019-20.711,10.547-34.396
	c38.719-43.727,13.959-97.521-13.562-114.257l-3.521-6.271c0.14-45.036-20.442-63.392-44.444-77.347
	c7.262-1.943,14.762-3.542,16.819-12.804c12.478-3.243,15.089-9.107,16.341-15.321c3.262-2.209,14.186-8.41,13.042-19.076
	c6.116-4.286,9.525-9.785,7.791-17.578c6.573-7.279,8.303-13.292,5.513-18.837c7.889-9.95,4.389-15.108,1.021-20.33
	c5.909-10.881,0.694-22.549-15.826-20.595c-6.569-9.803-20.896-7.576-23.111-7.53c-2.479-3.146-5.75-5.842-15.819-4.536
	c-6.521-5.904-13.812-4.897-21.334-1.997c-8.93-7.047-14.84-1.398-21.59,0.738c-10.812-3.533-13.285,1.306-18.598,3.277
	c-11.791-2.492-15.374,2.934-21.027,8.659l-6.575-0.13c-17.785,10.481-26.621,31.824-29.753,42.795
	c-3.134-10.974-11.949-32.316-29.731-42.795l-6.575,0.13c-5.66-5.726-9.243-11.151-21.035-8.659
	c-5.312-1.971-7.778-6.81-18.598-3.277c-4.43-1.402-8.504-4.316-13.303-4.167L162.069,1.15z"/>
<path fill="#75A928" d="M126.66,47.261c47.186,24.327,74.618,44.006,89.646,60.767c-7.696,30.846-47.845,32.253-62.525,31.388
	c3.006-1.399,5.514-3.075,6.403-5.65c-3.684-2.618-16.745-0.276-25.864-5.399c3.503-0.726,5.141-1.433,6.78-4.018
	c-8.615-2.748-17.895-5.115-23.353-9.667c2.946,0.036,5.695,0.659,9.542-2.009c-7.717-4.159-15.951-7.455-22.348-13.811
	c3.99-0.098,8.291-0.04,9.542-1.507c-7.062-4.375-13.021-9.242-17.955-14.563c5.583,0.674,7.941,0.093,9.291-0.879
	c-5.338-5.468-12.096-10.085-15.317-16.824c4.146,1.429,7.938,1.976,10.672-0.125c-1.814-4.093-9.587-6.507-14.062-16.071
	c4.364,0.423,8.993,0.953,9.918,0c-2.025-8.252-5.501-12.892-8.91-17.699c9.34-0.139,23.492,0.036,22.851-0.753l-5.775-5.901
	c9.124-2.456,18.459,0.395,25.236,2.511c3.043-2.401-0.054-5.438-3.766-8.538c7.753,1.035,14.76,2.817,21.092,5.273
	c3.383-3.055-2.197-6.11-4.896-9.166c11.979,2.272,17.053,5.466,22.097,8.663c3.659-3.507,0.209-6.488-2.26-9.542
	c9.032,3.345,13.684,7.664,18.582,11.927c1.661-2.241,4.219-3.884,1.13-9.291c6.413,3.696,11.242,8.052,14.815,12.932
	c3.968-2.526,2.364-5.981,2.386-9.165c6.664,5.421,10.894,11.19,16.071,16.824c1.042-0.76,1.956-3.335,2.762-7.408
	c15.899,15.425,38.365,54.276,5.775,69.68c-27.736-22.875-60.861-39.502-97.57-51.975L126.66,47.261z"/>
<path fill="#75A928" d="M377.027,47.261c-47.18,24.329-74.611,44.002-89.639,60.767c7.696,30.846,47.845,32.253,62.525,31.388
	c-3.006-1.399-5.514-3.075-6.403-5.65c3.684-2.618,16.745-0.276,25.864-5.399c-3.503-0.726-5.142-1.433-6.78-4.018
	c8.615-2.748,17.896-5.115,23.353-9.667c-2.945,0.036-5.695,0.659-9.541-2.009c7.717-4.159,15.95-7.455,22.348-13.811
	c-3.989-0.098-8.291-0.04-9.542-1.507c7.062-4.375,13.021-9.242,17.954-14.563c-5.583,0.674-7.94,0.093-9.291-0.879
	c5.339-5.468,12.097-10.085,15.317-16.824c-4.146,1.429-7.938,1.976-10.672-0.125c1.814-4.093,9.587-6.507,14.062-16.071
	c-4.364,0.423-8.993,0.953-9.918,0c2.029-8.256,5.505-12.896,8.913-17.703c-9.34-0.139-23.491,0.037-22.851-0.753l5.775-5.901
	c-9.123-2.456-18.459,0.395-25.236,2.511c-3.043-2.401,0.055-5.438,3.767-8.538c-7.753,1.035-14.76,2.818-21.092,5.273
	c-3.384-3.055,2.197-6.11,4.896-9.166c-11.979,2.273-17.054,5.466-22.098,8.663c-3.659-3.507-0.209-6.488,2.26-9.542
	c-9.031,3.345-13.684,7.664-18.581,11.927c-1.661-2.241-4.219-3.884-1.131-9.291c-6.412,3.696-11.242,8.052-14.814,12.932
	c-3.969-2.526-2.364-5.981-2.386-9.165c-6.665,5.421-10.894,11.19-16.071,16.824c-1.043-0.759-1.955-3.334-2.762-7.408
	c-15.899,15.425-38.365,54.276-5.775,69.681c27.722-22.88,60.845-39.506,97.556-51.979L377.027,47.261z"/>
<path fill="#BC1142" d="M308.987,361.362c0.164,28.784-25.007,52.241-56.223,52.393c-31.215,0.152-56.653-23.06-56.818-51.843
	c-0.001-0.184-0.001-0.367,0-0.55c-0.165-28.784,25.007-52.241,56.222-52.394c31.216-0.15,56.653,23.061,56.818,51.844
	C308.988,360.996,308.988,361.18,308.987,361.362z"/>
<path fill="#BC1142" d="M219.763,212.477c23.419,15.343,27.641,50.123,9.43,77.682c-18.211,27.559-51.96,37.462-75.379,22.118l0,0
	c-23.419-15.344-27.642-50.123-9.43-77.682C162.595,207.036,196.343,197.133,219.763,212.477L219.763,212.477z"/>
<path fill="#BC1142" d="M282.974,209.699c-23.419,15.343-27.642,50.123-9.43,77.682c18.212,27.56,51.96,37.462,75.38,22.118l0,0
	c23.419-15.343,27.641-50.122,9.43-77.682C340.142,204.258,306.393,194.355,282.974,209.699L282.974,209.699z"/>
<path fill="#BC1142" d="M102.715,237.562c25.285-6.778,8.536,104.604-12.037,95.465C68.049,314.826,60.76,261.521,102.715,237.562z"
	/>
<path fill="#BC1142" d="M394.917,236.174c-25.288-6.776-8.536,104.611,12.036,95.473
	C429.583,313.442,436.872,260.132,394.917,236.174L394.917,236.174z"/>
<path fill="#BC1142" d="M309.007,153.229c43.636-7.368,79.944,18.557,78.479,65.874C386.051,237.242,292.931,155.93,309.007,153.229
	z"/>
<path fill="#BC1142" d="M188.444,151.84c-43.639-7.368-79.944,18.562-78.479,65.875C111.401,235.854,204.521,154.542,188.444,151.84
	z"/>
<path fill="#BC1142" d="M251.125,140.806c-26.044-0.678-51.038,19.329-51.099,30.933c-0.073,14.1,20.591,28.537,51.276,28.903
	c31.335,0.225,51.33-11.556,51.431-26.107C302.848,158.049,274.234,140.551,251.125,140.806L251.125,140.806z"/>
<path fill="#BC1142" d="M252.715,429.944c22.707-0.991,53.175,7.313,53.234,18.331c0.377,10.697-27.632,34.868-54.74,34.401
	c-28.074,1.211-55.604-22.998-55.243-31.389C195.546,438.985,230.151,429.38,252.715,429.944L252.715,429.944z"/>
<path fill="#BC1142" d="M168.847,364.652c16.166,19.477,23.536,53.694,10.044,63.781c-12.763,7.699-43.758,4.528-65.789-27.12
	c-14.858-26.557-12.943-53.581-2.511-61.52C126.192,330.291,150.295,343.127,168.847,364.652L168.847,364.652z"/>
<path fill="#BC1142" d="M333.348,358.479c-17.491,20.488-27.231,57.854-14.472,69.89c12.2,9.35,44.951,8.043,69.144-25.525
	c17.566-22.545,11.681-60.195,1.646-70.194c-14.906-11.529-36.304,3.226-56.319,25.825L333.348,358.479z"/>
</svg>
